<?xml version="1.0" encoding="iso-8859-1"?>
<!-- Generator: Adobe Illustrator 21.0.0, SVG Export Plug-In . SVG Version: 6.00 Build 0)  -->
<svg xmlns="http://www.w3.org/2000/svg" xmlns:xlink="http://www.w3.org/1999/xlink" version="1.1" id="Capa_1" x="0px" y="0px" viewBox="0 0 512 512" style="enable-background:new 0 0 512 512;" xml:space="preserve" width="512" height="512">
<g>
	<path d="M256,302c-57.897,0-105,47.103-105,105s47.103,105,105,105s105-47.103,105-105S313.897,302,256,302z M256,482   c-41.355,0-75-33.645-75-75s33.645-75,75-75s75,33.645,75,75S297.355,482,256,482z"/>
	<path d="M166,181h45v75c0,8.284,6.716,15,15,15h60c8.284,0,15-6.716,15-15v-75h45c5.396,0,10.376-2.898,13.042-7.59   s2.606-10.454-0.157-15.089l-90-151C266.179,2.781,261.285,0,256,0s-10.179,2.781-12.885,7.32l-90,151   c-2.763,4.635-2.823,10.397-0.157,15.089S160.604,181,166,181z M256,44.298L319.597,151H286c-8.284,0-15,6.716-15,15v75h-30v-75   c0-8.284-6.716-15-15-15h-33.597L256,44.298z"/>
</g>















</svg>
