<?xml version="1.0" encoding="iso-8859-1"?>
<!-- Generator: Adobe Illustrator 21.0.0, SVG Export Plug-In . SVG Version: 6.00 Build 0)  -->
<svg xmlns="http://www.w3.org/2000/svg" xmlns:xlink="http://www.w3.org/1999/xlink" version="1.1" id="Capa_1" x="0px" y="0px" viewBox="0 0 512 512" style="enable-background:new 0 0 512 512;" xml:space="preserve" width="512" height="512">
<g>
	<path d="M256,0C115.03,0,0,115.049,0,256c0,140.97,115.049,256,256,256c140.97,0,256-115.049,256-256C512,115.03,396.951,0,256,0z    M256,482C131.383,482,30,380.617,30,256S131.383,30,256,30s226,101.383,226,226S380.617,482,256,482z"/>
	<path d="M316,256c0-33.084-26.916-60-60-60s-60,26.916-60,60s26.916,60,60,60S316,289.084,316,256z M226,256   c0-16.542,13.458-30,30-30s30,13.458,30,30s-13.458,30-30,30S226,272.542,226,256z"/>
	<path d="M268.481,52.679C265.699,48.507,261.015,46,256,46s-9.699,2.507-12.481,6.679l-60,90   c-3.068,4.603-3.354,10.521-0.744,15.398S190.468,166,196,166h120c5.532,0,10.615-3.045,13.225-7.922s2.324-10.796-0.744-15.398   L268.481,52.679z M224.028,136L256,88.042L287.972,136H224.028z"/>
	<path d="M316,346H196c-5.532,0-10.615,3.045-13.225,7.922s-2.324,10.796,0.744,15.398l60,90C246.301,463.493,250.985,466,256,466   s9.699-2.507,12.481-6.679l60-90c3.068-4.603,3.354-10.521,0.744-15.398S321.532,346,316,346z M256,423.958L224.028,376h63.944   L256,423.958z"/>
</g>















</svg>
