<?xml version="1.0" encoding="iso-8859-1"?>
<!-- Generator: Adobe Illustrator 21.0.0, SVG Export Plug-In . SVG Version: 6.00 Build 0)  -->
<svg xmlns="http://www.w3.org/2000/svg" xmlns:xlink="http://www.w3.org/1999/xlink" version="1.1" id="Capa_1" x="0px" y="0px" viewBox="0 0 512 512" style="enable-background:new 0 0 512 512;" xml:space="preserve" width="512" height="512">
<g>
	<path d="M256,0C115.03,0,0,115.049,0,256c0,140.97,115.049,256,256,256c140.97,0,256-115.049,256-256C512,115.03,396.951,0,256,0z    M256,482C131.383,482,30,380.617,30,256S131.383,30,256,30s226,101.383,226,226S380.617,482,256,482z"/>
	<path d="M256,196c-33.084,0-60,26.916-60,60s26.916,60,60,60s60-26.916,60-60S289.084,196,256,196z M256,286   c-16.542,0-30-13.458-30-30s13.458-30,30-30s30,13.458,30,30S272.542,286,256,286z"/>
	<path d="M459.32,243.519l-90-60c-4.602-3.069-10.52-3.355-15.398-0.744C349.045,185.385,346,190.468,346,196v120   c0,5.532,3.045,10.615,7.922,13.225c4.875,2.609,10.794,2.326,15.398-0.744l90-60c4.173-2.782,6.68-7.465,6.68-12.481   S463.494,246.301,459.32,243.519z M376,287.972v-63.944L423.958,256L376,287.972z"/>
	<path d="M158.078,182.775c-4.878-2.611-10.796-2.324-15.398,0.744l-90,60C48.506,246.301,46,250.985,46,256   s2.506,9.699,6.68,12.481l90,60c4.6,3.067,10.518,3.356,15.398,0.744c4.877-2.61,7.922-7.693,7.922-13.225V196   C166,190.468,162.955,185.385,158.078,182.775z M136,287.972L88.042,256L136,224.028V287.972z"/>
</g>















</svg>
