<?xml version="1.0" encoding="iso-8859-1"?>
<!-- Generator: Adobe Illustrator 21.0.0, SVG Export Plug-In . SVG Version: 6.00 Build 0)  -->
<svg xmlns="http://www.w3.org/2000/svg" xmlns:xlink="http://www.w3.org/1999/xlink" version="1.1" id="Capa_1" x="0px" y="0px" viewBox="0 0 512 512" style="enable-background:new 0 0 512 512;" xml:space="preserve" width="512" height="512">
<g>
	<path d="M316,256c0-33.084-26.916-60-60-60s-60,26.916-60,60s26.916,60,60,60S316,289.084,316,256z M226,256   c0-16.542,13.458-30,30-30s30,13.458,30,30s-13.458,30-30,30S226,272.542,226,256z"/>
	<path d="M268.481,52.68C265.699,48.506,261.015,46,256,46s-9.699,2.506-12.481,6.68l-60,90c-3.068,4.603-3.354,10.521-0.744,15.398   c2.61,4.877,7.693,7.922,13.225,7.922h120c5.532,0,10.615-3.045,13.225-7.922c2.61-4.877,2.324-10.796-0.744-15.398L268.481,52.68z    M224.028,136L256,88.042L287.972,136H224.028z"/>
	<path d="M316,346H196c-5.532,0-10.615,3.045-13.225,7.922c-2.61,4.877-2.324,10.796,0.744,15.398l60,90   c2.782,4.173,7.466,6.68,12.481,6.68s9.699-2.506,12.481-6.68l60-90c3.068-4.603,3.354-10.521,0.744-15.398   C326.615,349.045,321.532,346,316,346z M256,423.958L224.028,376h63.944L256,423.958z"/>
	<path d="M353.922,182.775C349.045,185.385,346,190.468,346,196v120c0,5.532,3.045,10.615,7.922,13.225   c4.878,2.61,10.795,2.324,15.398-0.744l90-60c4.173-2.782,6.68-7.466,6.68-12.481s-2.506-9.699-6.68-12.481l-90-60   C364.718,180.451,358.8,180.164,353.922,182.775z M376,224.028L423.958,256L376,287.972V224.028z"/>
	<path d="M158.078,182.775c-4.878-2.61-10.796-2.324-15.398,0.744l-90,60C48.506,246.301,46,250.985,46,256s2.506,9.699,6.68,12.481   l90,60c4.6,3.067,10.519,3.356,15.398,0.744c4.877-2.61,7.922-7.693,7.922-13.225V196C166,190.468,162.955,185.385,158.078,182.775   z M136,287.972L88.042,256L136,224.028V287.972z"/>
	<path d="M497,121H391V15c0-8.284-6.716-15-15-15H136c-8.284,0-15,6.716-15,15v106H15c-8.284,0-15,6.716-15,15v240   c0,8.284,6.716,15,15,15h106v106c0,8.284,6.716,15,15,15h240c8.284,0,15-6.716,15-15V391h106c8.284,0,15-6.716,15-15V136   C512,127.716,505.284,121,497,121z M482,361H376c-8.284,0-15,6.716-15,15v106H151V376c0-8.284-6.716-15-15-15H30V151h106   c8.284,0,15-6.716,15-15V30h210v106c0,8.284,6.716,15,15,15h106V361z"/>
</g>















</svg>
