<?xml version="1.0" encoding="iso-8859-1"?>
<!-- Generator: Adobe Illustrator 21.0.0, SVG Export Plug-In . SVG Version: 6.00 Build 0)  -->
<svg xmlns="http://www.w3.org/2000/svg" xmlns:xlink="http://www.w3.org/1999/xlink" version="1.1" id="Capa_1" x="0px" y="0px" viewBox="0 0 512 512" style="enable-background:new 0 0 512 512;" xml:space="preserve" width="512" height="512">
<path d="M256,512c68.38,0,132.667-26.629,181.019-74.98C485.371,388.667,512,324.38,512,256s-26.629-132.667-74.98-181.019  C388.667,26.629,324.38,0,256,0S123.333,26.629,74.981,74.98C26.629,123.333,0,187.62,0,256s26.629,132.667,74.98,181.019  C123.333,485.371,187.62,512,256,512z M80.244,398.099c9.045,1.193,19.287,2.038,30.205,2.038c25.026,0,53.566-4.426,79.128-19.185  c41.123-23.742,62.928-67.512,73.24-95.657C278.993,304.947,301,338.562,301,376c0,50.464-40.401,94.363-51.955,105.883  c-57.76-1.734-111.809-25.035-152.851-66.078C90.533,410.145,85.22,404.229,80.244,398.099z M415.806,415.806  c-34.278,34.278-77.632,56.176-124.641,63.477C309.461,455.459,331,418.41,331,376c0-47.485-27.003-88.253-46.221-111.257  c25.107-4.182,65.222-6.433,97.644,12.286c43.803,25.29,61.602,82.427,65.748,98.04C439.085,389.671,428.27,403.342,415.806,415.806  z M466.998,337.302c-11.473-27.77-32.797-65.02-69.576-86.253c-41.096-23.727-89.868-20.745-119.404-15.609  c8.985-23.872,27.138-59.781,59.404-78.41c43.845-25.314,102.294-12.11,117.823-7.908C472.72,181.596,482,218.084,482,256  C482,284.249,476.851,311.707,466.998,337.302z M431.755,113.9c-29.779-3.929-72.617-4.05-109.332,17.148  c-41.123,23.742-62.928,67.511-73.24,95.657C233.007,207.053,211,173.439,211,136c0-50.464,40.401-94.364,51.955-105.884  c57.76,1.735,111.809,25.036,152.851,66.078C421.467,101.855,426.779,107.77,431.755,113.9z M96.194,96.194  c34.278-34.278,77.632-56.176,124.641-63.477C202.539,56.541,181,93.59,181,136c0,47.485,27.003,88.253,46.221,111.257  c-25.107,4.182-65.222,6.433-97.644-12.286c-43.803-25.29-61.602-82.427-65.748-98.04C72.915,122.328,83.73,108.658,96.194,96.194z   M45.002,174.698c11.473,27.769,32.797,65.019,69.576,86.253c25.566,14.761,54.099,19.185,79.128,19.185  c15.209,0,29.112-1.636,40.277-3.578c-8.984,23.872-27.138,59.783-59.405,78.413c-43.846,25.313-102.294,12.11-117.823,7.908  C39.28,330.404,30,293.916,30,256C30,227.751,35.149,200.294,45.002,174.698z"/>















</svg>
