<?xml version="1.0" encoding="iso-8859-1"?>
<!-- Generator: Adobe Illustrator 21.0.0, SVG Export Plug-In . SVG Version: 6.00 Build 0)  -->
<svg xmlns="http://www.w3.org/2000/svg" xmlns:xlink="http://www.w3.org/1999/xlink" version="1.1" id="Capa_1" x="0px" y="0px" viewBox="0 0 512 512" style="enable-background:new 0 0 512 512;" xml:space="preserve" width="512" height="512">
<path d="M405.988,181c-5.857,0-11.449,1.137-16.586,3.181C384.197,165.085,366.711,151,345.988,151  c-5.857,0-11.449,1.137-16.586,3.181C324.197,135.085,306.711,121,285.988,121c-5.258,0-10.305,0.915-15,2.58V45  c0-24.813-20.187-45-45-45s-45,20.187-45,45v252.365l-43.183-43.183c-17.589-17.59-46.044-17.592-63.635,0  c-17.402,17.402-17.543,45.628-0.424,63.206c66.586,77.141,103.495,129.118,142.982,160.448  c29.541,23.438,59.539,33.975,97.264,34.163c0.126,0,0.251,0,0.378,0c6.185,0,12.538-0.758,18.157-1.428  c68.196-8.136,118.46-69.751,118.46-139.257V226C450.988,201.187,430.801,181,405.988,181z M420.988,371.315  c0,55.229-40.417,103.313-92.014,109.468c-5.105,0.609-10.366,1.235-14.831,1.216c-64.634-0.322-93.468-35.161-163.132-119.329  c-4.408-5.326-50.741-61.188-55.628-66.065c-5.865-5.865-5.866-15.342,0-21.209c5.848-5.847,15.361-5.847,21.209,0l68.79,68.79  c4.289,4.291,10.742,5.575,16.347,3.251c5.605-2.322,9.26-7.791,9.26-13.858L210.988,45c0-8.271,6.729-15,15-15s15,6.729,15,15  c0,9.968,0,204.106,0,211c0,8.284,6.716,15,15,15s15-6.716,15-15c0-11.31,0-80.756,0-90c0-8.271,6.729-15,15-15s15,6.729,15,15  c0,11.31,0,80.756,0,90c0,8.284,6.716,15,15,15s15-6.716,15-15v-60c0-8.271,6.729-15,15-15s15,6.729,15,15v60  c0,8.284,6.716,15,15,15s15-6.716,15-15v-30c0-8.271,6.729-15,15-15s15,6.729,15,15V371.315z"/>















</svg>
