<?xml version="1.0" encoding="iso-8859-1"?>
<!-- Generator: Adobe Illustrator 21.0.0, SVG Export Plug-In . SVG Version: 6.00 Build 0)  -->
<svg xmlns="http://www.w3.org/2000/svg" xmlns:xlink="http://www.w3.org/1999/xlink" version="1.1" id="Capa_1" x="0px" y="0px" viewBox="0 0 512.066 512.066" style="enable-background:new 0 0 512.066 512.066;" xml:space="preserve" width="512" height="512">
<path d="M507.672,444.033L260.46,196.821c0,0-0.001,0-0.001-0.001s-0.001,0-0.001-0.001L196.82,133.18  c-2.813-2.813-6.628-4.394-10.606-4.394c-3.979,0-7.793,1.58-10.606,4.394l-42.427,42.427c-2.813,2.813-4.394,6.628-4.394,10.606  c0,3.978,1.581,7.793,4.394,10.606l63.639,63.639c0,0,0.001,0,0.001,0.001s0.001,0,0.001,0.001l247.212,247.212  c2.929,2.929,6.768,4.394,10.606,4.394s7.678-1.464,10.606-4.394l42.426-42.426C513.53,459.388,513.53,449.891,507.672,444.033z   M228.64,249.853l21.213-21.213L412.213,391L391,412.213L228.64,249.853z M186.213,165l42.426,42.427l-21.213,21.213L165,186.213  L186.213,165z M454.64,475.853l-42.427-42.426l21.213-21.213l42.426,42.427L454.64,475.853z"/>
<path d="M90.754,218.033l-42.426,42.426c-5.858,5.858-5.858,15.355,0,21.213c2.929,2.929,6.768,4.394,10.606,4.394  s7.678-1.464,10.606-4.394l42.426-42.426c5.858-5.858,5.858-15.355,0-21.213C106.109,212.175,96.611,212.175,90.754,218.033z"/>
<path d="M260.46,48.328l-42.426,42.426c-5.858,5.858-5.858,15.355,0,21.213c2.929,2.929,6.768,4.394,10.606,4.394  s7.678-1.464,10.606-4.394l42.426-42.426c5.858-5.858,5.858-15.355,0-21.213C275.815,42.469,266.317,42.469,260.46,48.328z"/>
<path d="M150,15v60c0,8.284,6.716,15,15,15s15-6.716,15-15V15c0-8.284-6.716-15-15-15S150,6.716,150,15z"/>
<path d="M69.541,48.328c-5.857-5.858-15.355-5.858-21.213,0c-5.858,5.858-5.858,15.355,0,21.213l42.426,42.426  c2.929,2.929,6.768,4.394,10.606,4.394s7.678-1.464,10.606-4.394c5.858-5.858,5.858-15.355,0-21.213L69.541,48.328z"/>
<path d="M90,165c0-8.284-6.716-15-15-15H15c-8.284,0-15,6.716-15,15s6.716,15,15,15h60C83.284,180,90,173.284,90,165z"/>















</svg>
