<?xml version="1.0" encoding="iso-8859-1"?>
<!-- Generator: Adobe Illustrator 21.0.0, SVG Export Plug-In . SVG Version: 6.00 Build 0)  -->
<svg xmlns="http://www.w3.org/2000/svg" xmlns:xlink="http://www.w3.org/1999/xlink" version="1.1" id="Capa_1" x="0px" y="0px" viewBox="0 0 512 512" style="enable-background:new 0 0 512 512;" xml:space="preserve" width="512" height="512">
<path d="M421,60c-12.347,0-23.832,3.752-33.382,10.171C379.409,46.804,357.136,30,331,30c-12.347,0-23.832,3.752-33.382,10.171  C289.409,16.804,267.136,0,241,0c-26.134,0-48.419,16.795-56.629,40.159C174.823,33.744,163.342,30,151,30  c-33.084,0-60,26.916-60,60v39.787L52.967,167.82C38.801,181.985,31,200.82,31,220.853V256c0,99.248,47.103,193.827,126,253  c2.597,1.947,5.754,3,9,3h210c3.978,0,7.792-1.58,10.605-4.392l2.133-2.133C447.372,446.841,481,365.292,481,281.736V120  C481,86.916,454.084,60,421,60z M451,281.736c0,74.591-29.569,147.39-81.239,200.264H171.073C102.059,428.298,61,344.194,61,256  v-35.147c0-12.02,4.681-23.321,13.18-31.82L91,172.213V256c0,8.284,6.716,15,15,15s15-6.716,15-15V90c0-16.542,13.458-30,30-30  s30,13.458,30,30v106c0,8.284,6.716,15,15,15s15-6.716,15-15V60c0-16.542,13.458-30,30-30s30,13.458,30,30c0,3.628,0,132.496,0,136  c0,8.284,6.716,15,15,15s15-6.716,15-15V90c0-16.542,13.458-30,30-30s30,13.458,30,30v106c0,8.284,6.716,15,15,15s15-6.716,15-15  v-76c0-16.542,13.458-30,30-30s30,13.458,30,30V281.736z"/>















</svg>
