<?xml version="1.0" encoding="iso-8859-1"?>
<!-- Generator: Adobe Illustrator 21.0.0, SVG Export Plug-In . SVG Version: 6.00 Build 0)  -->
<svg xmlns="http://www.w3.org/2000/svg" xmlns:xlink="http://www.w3.org/1999/xlink" version="1.1" id="Capa_1" x="0px" y="0px" viewBox="0 0 511.931 511.931" style="enable-background:new 0 0 511.931 511.931;" xml:space="preserve" width="512" height="512">
<path d="M416.589,305.412l-300-301c-4.424-4.439-11.14-5.659-16.842-3.062c-5.702,2.598-9.189,8.466-8.744,14.717l30,421  c0.347,4.876,3.049,9.277,7.241,11.794c4.191,2.517,9.347,2.833,13.813,0.847l83.436-37.082l47.933,91.265  c3.796,7.243,12.689,10.107,19.994,6.454l80.508-40.054c7.516-3.758,10.473-12.959,6.573-20.388l-45.189-86.086l76.746-34.108  c4.512-2.005,7.749-6.103,8.654-10.957S420.075,308.909,416.589,305.412z M308.497,342.904c-7.923,3.521-11.214,13.013-7.189,20.679  l45.521,86.716l-53.661,26.63l-47.629-90.685c-3.673-7.009-12.153-9.955-19.378-6.745l-76.751,34.112L123.792,54.135  l256.159,257.012L308.497,342.904z"/>















</svg>
