<?xml version="1.0" encoding="iso-8859-1"?>
<!-- Generator: Adobe Illustrator 21.0.0, SVG Export Plug-In . SVG Version: 6.00 Build 0)  -->
<svg xmlns="http://www.w3.org/2000/svg" xmlns:xlink="http://www.w3.org/1999/xlink" version="1.1" id="Capa_1" x="0px" y="0px" viewBox="0 0 512 512" style="enable-background:new 0 0 512 512;" xml:space="preserve" width="512" height="512">
<g>
	<path d="M256,210c57.897,0,105-47.103,105-105S313.897,0,256,0S151,47.103,151,105S198.103,210,256,210z M256,30   c41.355,0,75,33.645,75,75s-33.645,75-75,75s-75-33.645-75-75S214.645,30,256,30z"/>
	<path d="M346,331h-45v-75c0-8.284-6.716-15-15-15h-60c-8.284,0-15,6.716-15,15v75h-45c-5.396,0-10.376,2.898-13.042,7.59   s-2.606,10.454,0.157,15.089l90,151c2.706,4.54,7.6,7.32,12.885,7.32s10.179-2.781,12.885-7.32l90-151   c2.763-4.635,2.823-10.397,0.157-15.089S351.396,331,346,331z M256,467.702L192.403,361H226c8.284,0,15-6.716,15-15v-75h30v75   c0,8.284,6.716,15,15,15h33.597L256,467.702z"/>
</g>















</svg>
