<?xml version="1.0" encoding="iso-8859-1"?>
<!-- Generator: Adobe Illustrator 21.0.0, SVG Export Plug-In . SVG Version: 6.00 Build 0)  -->
<svg xmlns="http://www.w3.org/2000/svg" xmlns:xlink="http://www.w3.org/1999/xlink" version="1.1" id="Capa_1" x="0px" y="0px" viewBox="0 0 512 512" style="enable-background:new 0 0 512 512;" xml:space="preserve" width="512" height="512">
<path d="M436,482h-45v-72.307c0-65.753-36.748-124.332-93.017-153.693C354.252,226.639,391,168.06,391,102.307V30h45  c8.284,0,15-6.716,15-15s-6.716-15-15-15H76c-8.284,0-15,6.716-15,15s6.716,15,15,15h45v72.307  c0,65.753,36.748,124.332,93.017,153.693C157.748,285.361,121,343.94,121,409.693V482H76c-8.284,0-15,6.716-15,15s6.716,15,15,15  h360c8.284,0,15-6.716,15-15S444.284,482,436,482z M361,409.693V482h-30v-46c0-46.224-29.909-54.48-60-69.284v-90.133  C324.836,298.117,361,350.374,361,409.693z M256,392.77c34.219,17.058,45,17.079,45,43.23v46h-90v-46  C211,409.853,221.765,409.836,256,392.77z M256,240.483c-20.866-5.794-39.576-16.211-55.221-29.683h110.442  C295.576,224.272,276.866,234.689,256,240.483z M151,30h210v72.307c0,28.797-8.523,55.93-23.452,78.693H174.452  C159.523,158.237,151,131.104,151,102.307V30z M151,409.693c0-59.319,36.164-111.576,90-133.11v90.133  c-29.971,14.745-60,22.998-60,69.284v46h-30V409.693z"/>















</svg>
