<?xml version="1.0" encoding="iso-8859-1"?>
<!-- Generator: Adobe Illustrator 21.0.0, SVG Export Plug-In . SVG Version: 6.00 Build 0)  -->
<svg xmlns="http://www.w3.org/2000/svg" xmlns:xlink="http://www.w3.org/1999/xlink" version="1.1" id="Capa_1" x="0px" y="0px" viewBox="0 0 512 512" style="enable-background:new 0 0 512 512;" xml:space="preserve" width="512" height="512">
<g>
	<path d="M256,0c-8.284,0-15,6.716-15,15v181c0,8.284,6.716,15,15,15s15-6.716,15-15V15C271,6.716,264.284,0,256,0z"/>
	<path d="M256,301c-8.284,0-15,6.716-15,15v181c0,8.284,6.716,15,15,15s15-6.716,15-15V316C271,307.716,264.284,301,256,301z"/>
	<path d="M196,241H15c-8.284,0-15,6.716-15,15s6.716,15,15,15h181c8.284,0,15-6.716,15-15S204.284,241,196,241z"/>
	<path d="M497,241H316c-8.284,0-15,6.716-15,15s6.716,15,15,15h181c8.284,0,15-6.716,15-15S505.284,241,497,241z"/>
	<circle cx="256" cy="256" r="15"/>
</g>















</svg>
