<?xml version="1.0" encoding="iso-8859-1"?>
<!-- Generator: Adobe Illustrator 21.0.0, SVG Export Plug-In . SVG Version: 6.00 Build 0)  -->
<svg xmlns="http://www.w3.org/2000/svg" xmlns:xlink="http://www.w3.org/1999/xlink" version="1.1" id="Capa_1" x="0px" y="0px" viewBox="0 0 512 512" style="enable-background:new 0 0 512 512;" xml:space="preserve" width="512" height="512">
<g>
	<path d="M497,241h-16.504C473.154,128.713,383.453,38.857,271,31.504V15c0-8.284-6.716-15-15-15s-15,6.716-15,15v16.504   C128.712,38.846,38.857,128.548,31.504,241H15c-8.284,0-15,6.716-15,15s6.716,15,15,15h16.504   C38.847,383.288,128.547,473.143,241,480.496V497c0,8.284,6.716,15,15,15s15-6.716,15-15v-16.504   C383.287,473.154,473.143,383.453,480.496,271H497c8.284,0,15-6.716,15-15S505.284,241,497,241z M271,450.429V436   c0-8.284-6.716-15-15-15s-15,6.716-15,15v14.429C145.409,443.123,68.877,366.591,61.571,271H76c8.284,0,15-6.716,15-15   s-6.716-15-15-15H61.571C68.877,145.409,145.409,68.877,241,61.571V76c0,8.284,6.716,15,15,15s15-6.716,15-15V61.571   C366.591,68.877,443.123,145.409,450.429,241H436c-8.284,0-15,6.716-15,15s6.716,15,15,15h14.429   C443.123,366.591,366.591,443.123,271,450.429z"/>
	<path d="M316,241h-45v-45c0-8.284-6.716-15-15-15s-15,6.716-15,15v45h-45c-8.284,0-15,6.716-15,15s6.716,15,15,15h45v45   c0,8.284,6.716,15,15,15s15-6.716,15-15v-45h45c8.284,0,15-6.716,15-15S324.284,241,316,241z"/>
</g>















</svg>
