<?xml version="1.0" encoding="iso-8859-1"?>
<!-- Generator: Adobe Illustrator 21.0.0, SVG Export Plug-In . SVG Version: 6.00 Build 0)  -->
<svg xmlns="http://www.w3.org/2000/svg" xmlns:xlink="http://www.w3.org/1999/xlink" version="1.1" id="Capa_1" x="0px" y="0px" viewBox="0 0 512 512" style="enable-background:new 0 0 512 512;" xml:space="preserve" width="512" height="512">
<g>
	<path d="M256,181c-41.355,0-75,33.645-75,75s33.645,75,75,75s75-33.645,75-75S297.355,181,256,181z M256,301   c-24.813,0-45-20.187-45-45s20.187-45,45-45s45,20.187,45,45S280.813,301,256,301z"/>
	<path d="M506,244l-120-90c-4.545-3.409-10.627-3.958-15.708-1.417C365.21,155.125,362,160.319,362,166v180   c0,5.682,3.21,10.875,8.292,13.417c5.07,2.536,11.154,1.999,15.708-1.417l120-90c3.777-2.833,6-7.279,6-12   C512,251.279,509.777,246.833,506,244z M392,316V196l80,60L392,316z"/>
	<path d="M141.708,152.584c-5.082-2.542-11.163-1.993-15.708,1.417L6,244c-3.777,2.833-6,7.279-6,12c0,4.721,2.223,9.167,6,12   l120,90c4.551,3.413,10.633,3.954,15.708,1.417C146.79,356.876,150,351.682,150,346V166   C150,160.319,146.79,155.125,141.708,152.584z M120,316l-80-60l80-60V316z"/>
</g>















</svg>
