<?xml version="1.0" encoding="iso-8859-1"?>
<!-- Generator: Adobe Illustrator 21.0.0, SVG Export Plug-In . SVG Version: 6.00 Build 0)  -->
<svg xmlns="http://www.w3.org/2000/svg" xmlns:xlink="http://www.w3.org/1999/xlink" version="1.1" id="Capa_1" x="0px" y="0px" viewBox="0 0 512 512" style="enable-background:new 0 0 512 512;" xml:space="preserve" width="512" height="512">
<path d="M405.988,60c-5.857,0-11.449,1.137-16.586,3.181C384.197,44.085,366.711,30,345.988,30c-5.857,0-11.449,1.137-16.586,3.181  C324.197,14.085,306.711,0,285.988,0s-38.209,14.085-43.414,33.181C237.437,31.137,231.844,30,225.988,30c-24.813,0-45,20.187-45,45  v222.365l-43.183-43.183c-17.544-17.545-46.091-17.544-63.635,0c-17.402,17.402-17.543,45.628-0.424,63.206  c66.564,77.116,103.493,129.116,142.982,160.448c29.541,23.438,59.539,33.975,97.264,34.163c0.126,0,0.252,0,0.378,0  c6.185,0,12.538-0.758,18.157-1.428c68.194-8.136,118.46-69.75,118.46-139.257V105C450.988,80.187,430.801,60,405.988,60z   M420.988,371.315c0,55.229-40.417,103.313-92.014,109.468c-5.105,0.609-10.387,1.235-14.831,1.216  C233.969,481.6,208.447,427.478,96.13,297.407c-0.239-0.276-0.488-0.544-0.747-0.803c-5.865-5.865-5.866-15.342,0-21.209  c5.848-5.847,15.361-5.847,21.209,0l68.79,68.79c4.291,4.291,10.742,5.575,16.347,3.251c5.605-2.322,9.26-7.791,9.26-13.858  L210.988,75c0-8.271,6.729-15,15-15s15,6.729,15,15c0,8.1,0,172.556,0,181c0,8.284,6.716,15,15,15s15-6.716,15-15  c0-10.463,0-200.568,0-211c0-8.271,6.729-15,15-15s15,6.729,15,15c0,5.04,0,209.16,0,211c0,8.284,6.716,15,15,15s15-6.716,15-15V75  c0-8.271,6.729-15,15-15s15,6.729,15,15v181c0,8.284,6.716,15,15,15s15-6.716,15-15V105c0-8.271,6.729-15,15-15s15,6.729,15,15  V371.315z"/>















</svg>
