<?xml version="1.0" encoding="iso-8859-1"?>
<!-- Generator: Adobe Illustrator 21.0.0, SVG Export Plug-In . SVG Version: 6.00 Build 0)  -->
<svg xmlns="http://www.w3.org/2000/svg" xmlns:xlink="http://www.w3.org/1999/xlink" version="1.1" id="Capa_1" x="0px" y="0px" viewBox="0 0 512.001 512.001" style="enable-background:new 0 0 512.001 512.001;" xml:space="preserve" width="512" height="512">
<g>
	<path d="M339.096,301.274L20.898,165.208c-5.636-2.409-12.171-1.148-16.505,3.187c-4.334,4.335-5.594,10.871-3.183,16.506   l136.066,318c2.377,5.555,7.828,9.1,13.784,9.1c0.452,0,0.907-0.02,1.364-0.062c6.474-0.588,11.833-5.28,13.271-11.62   l31.548-139.073l139.27-31.55c6.342-1.437,11.036-6.796,11.625-13.271C348.726,309.948,345.075,303.831,339.096,301.274z    M181.392,334.076c-5.635,1.277-10.036,5.676-11.314,11.311l-23.41,103.201L43.513,207.506l241.235,103.155L181.392,334.076z"/>
	<path d="M437.001,120h-45V75c0-8.284-6.716-15-15-15s-15,6.716-15,15v45h-45c-8.284,0-15,6.716-15,15s6.716,15,15,15h45v45   c0,8.284,6.716,15,15,15s15-6.716,15-15v-45h45c8.284,0,15-6.716,15-15S445.285,120,437.001,120z"/>
	<path d="M377.001,0c-74.439,0-135,60.561-135,135s60.561,135,135,135s135-60.561,135-135S451.44,0,377.001,0z M377.001,240   c-57.897,0-105-47.103-105-105s47.103-105,105-105s105,47.103,105,105S434.898,240,377.001,240z"/>
</g>















</svg>
