<?xml version="1.0" encoding="iso-8859-1"?>
<!-- Generator: Adobe Illustrator 21.0.0, SVG Export Plug-In . SVG Version: 6.00 Build 0)  -->
<svg xmlns="http://www.w3.org/2000/svg" xmlns:xlink="http://www.w3.org/1999/xlink" version="1.1" id="Capa_1" x="0px" y="0px" viewBox="0 0 512 512" style="enable-background:new 0 0 512 512;" xml:space="preserve" width="512" height="512">
<g>
	<path d="M339.096,301.076L20.898,165.01c-5.635-2.411-12.17-1.148-16.504,3.186c-4.334,4.334-5.595,10.869-3.186,16.504   l136.066,318.198c2.376,5.558,7.829,9.103,13.786,9.103c0.452,0,0.908-0.021,1.364-0.062c6.476-0.589,11.835-5.283,13.271-11.625   l31.55-139.267l139.267-31.55c6.342-1.437,11.036-6.796,11.625-13.271C348.726,309.75,345.075,303.633,339.096,301.076z    M181.392,333.878c-5.637,1.277-10.039,5.679-11.315,11.315L146.662,448.55L43.502,207.303l241.247,103.161L181.392,333.878z"/>
	<path d="M437,120H317c-8.284,0-15,6.716-15,15s6.716,15,15,15h120c8.284,0,15-6.716,15-15S445.285,120,437,120z"/>
	<path d="M377,0c-74.439,0-135,60.561-135,135s60.561,135,135,135s135-60.561,135-135S451.44,0,377,0z M377,240   c-57.897,0-105-47.103-105-105S319.103,30,377,30s105,47.103,105,105S434.897,240,377,240z"/>
</g>















</svg>
