<?xml version="1.0" encoding="iso-8859-1"?>
<!-- Generator: Adobe Illustrator 21.0.0, SVG Export Plug-In . SVG Version: 6.00 Build 0)  -->
<svg xmlns="http://www.w3.org/2000/svg" xmlns:xlink="http://www.w3.org/1999/xlink" version="1.1" id="Capa_1" x="0px" y="0px" viewBox="0 0 512 512" style="enable-background:new 0 0 512 512;" xml:space="preserve" width="512" height="512">
<g>
	<path d="M497,211H358.422c-3.979,0-7.794,1.58-10.606,4.393l-30,30c-5.858,5.858-5.858,15.355,0,21.213l30,30   c2.813,2.813,6.628,4.393,10.606,4.393H497c8.284,0,15-6.716,15-15v-60C512,217.716,505.284,211,497,211z M482,271H364.635l-15-15   l15-15H482V271z"/>
	<path d="M286,0h-60c-8.284,0-15,6.716-15,15v138.578c0,3.978,1.581,7.794,4.394,10.607l30,30c2.929,2.929,6.768,4.393,10.606,4.393   s7.678-1.464,10.606-4.393l30-30c2.813-2.813,4.394-6.628,4.394-10.607V15C301,6.716,294.284,0,286,0z M271,147.365l-15,15l-15-15   V30h30V147.365z"/>
	<path d="M266.606,317.815c-5.857-5.858-15.355-5.858-21.213,0l-30,30c-2.813,2.813-4.394,6.628-4.394,10.607V497   c0,8.284,6.716,15,15,15h60c8.284,0,15-6.716,15-15V358.422c0-3.978-1.58-7.794-4.394-10.607L266.606,317.815z M271,482h-30   V364.635l15-15l15,15V482z"/>
	<path d="M164.185,215.393c-2.813-2.813-6.628-4.393-10.606-4.393H15c-8.284,0-15,6.716-15,15v60c0,8.284,6.716,15,15,15h138.578   c3.978,0,7.793-1.58,10.606-4.393l30-30c5.858-5.858,5.858-15.355,0-21.213L164.185,215.393z M147.365,271H30v-30h117.365l15,15   L147.365,271z"/>
</g>















</svg>
