<?xml version="1.0" encoding="iso-8859-1"?>
<!-- Generator: Adobe Illustrator 21.0.0, SVG Export Plug-In . SVG Version: 6.00 Build 0)  -->
<svg xmlns="http://www.w3.org/2000/svg" xmlns:xlink="http://www.w3.org/1999/xlink" version="1.1" id="Capa_1" x="0px" y="0px" viewBox="0 0 512.011 512.011" style="enable-background:new 0 0 512.011 512.011;" xml:space="preserve" width="512" height="512">
<g>
	<path d="M255,180H135c-8.284,0-15,6.716-15,15s6.716,15,15,15h120c8.284,0,15-6.716,15-15S263.284,180,255,180z"/>
	<path d="M195,60c-74.439,0-135,60.561-135,135s60.561,135,135,135s135-60.561,135-135S269.44,60,195,60z M195,300   c-57.897,0-105-47.103-105-105S137.103,90,195,90s105,47.103,105,105S252.897,300,195,300z"/>
	<path d="M498.82,435.186L360.939,297.303C379.353,267.544,390,232.494,390,195C390,87.477,302.523,0,195,0S0,87.477,0,195   s87.477,195,195,195c37.494,0,72.544-10.647,102.304-29.062l137.882,137.882c17.585,17.585,46.048,17.588,63.635,0   C516.407,481.235,516.408,452.773,498.82,435.186z M30,195c0-90.981,74.019-165,165-165s165,74.019,165,165s-74.019,165-165,165   S30,285.981,30,195z M477.607,477.608c-5.862,5.861-15.346,5.861-21.209,0L321.806,343.014c7.598-6.519,14.69-13.61,21.209-21.209   l134.593,134.593C483.468,462.259,483.47,471.746,477.607,477.608z"/>
</g>















</svg>
