<?xml version="1.0" encoding="iso-8859-1"?>
<!-- Generator: Adobe Illustrator 21.0.0, SVG Export Plug-In . SVG Version: 6.00 Build 0)  -->
<svg xmlns="http://www.w3.org/2000/svg" xmlns:xlink="http://www.w3.org/1999/xlink" version="1.1" id="Capa_1" x="0px" y="0px" viewBox="0 0 512 512" style="enable-background:new 0 0 512 512;" xml:space="preserve" width="512" height="512">
<path d="M502.74,333.142c-5.602-2.32-12.057-1.038-16.347,3.252l-43.183,43.182L132.424,68.789l43.182-43.183  c4.29-4.29,5.573-10.742,3.252-16.347C176.537,3.655,171.067,0,165,0H15C6.716,0,0,6.716,0,15v150c0,6.067,3.655,11.537,9.26,13.858  c5.604,2.321,12.058,1.038,16.347-3.252l43.183-43.182l310.787,310.787l-43.183,43.183c-4.29,4.29-5.573,10.742-3.252,16.347  c2.322,5.605,7.791,9.26,13.858,9.26h150c8.284,0,15-6.716,15-15V347C512,340.933,508.346,335.463,502.74,333.142z M482,482h-98.787  l28.183-28.183c5.858-5.858,5.858-15.355,0-21.213l-332-332c-5.857-5.858-15.355-5.858-21.213,0L30,128.787V30h98.787  l-28.182,28.183c-5.858,5.858-5.858,15.355,0,21.213l332,332c5.857,5.858,15.355,5.858,21.213,0L482,383.213V482z"/>















</svg>
