<?xml version="1.0" encoding="iso-8859-1"?>
<!-- Generator: Adobe Illustrator 21.0.0, SVG Export Plug-In . SVG Version: 6.00 Build 0)  -->
<svg xmlns="http://www.w3.org/2000/svg" xmlns:xlink="http://www.w3.org/1999/xlink" version="1.1" id="Capa_1" x="0px" y="0px" viewBox="0 0 512 512" style="enable-background:new 0 0 512 512;" xml:space="preserve" width="512" height="512">
<path d="M507.606,245.394l-90-90c-4.29-4.291-10.742-5.572-16.347-3.252c-5.605,2.322-9.26,7.792-9.26,13.858v45h-91v-91h45  c6.067,0,11.536-3.655,13.858-9.26c2.321-5.605,1.038-12.057-3.252-16.347l-90-90c-5.857-5.858-15.355-5.858-21.213,0l-90,90  c-4.29,4.29-5.573,10.742-3.252,16.347c2.322,5.605,7.792,9.26,13.858,9.26h45v91h-91v-45c0-6.067-3.655-11.537-9.26-13.858  c-5.607-2.322-12.058-1.038-16.347,3.252l-90,90c-5.858,5.858-5.858,15.355,0,21.213l90,90c4.289,4.29,10.742,5.573,16.347,3.252  c5.605-2.322,9.26-7.792,9.26-13.858v-45h91v91h-45c-6.067,0-11.537,3.655-13.858,9.26c-2.321,5.605-1.038,12.057,3.252,16.347  l90,90C248.322,510.536,252.161,512,256,512s7.678-1.464,10.606-4.394l90-90c4.29-4.29,5.573-10.742,3.252-16.347  c-2.322-5.605-7.791-9.26-13.858-9.26h-45v-91h91v45c0,6.067,3.654,11.537,9.26,13.858c5.604,2.321,12.057,1.039,16.347-3.252l90-90  C513.465,260.749,513.465,251.252,507.606,245.394z M422,309.787V286c0-8.284-6.716-15-15-15H286c-8.284,0-15,6.716-15,15v121  c0,8.284,6.716,15,15,15h23.787L256,475.787L202.213,422H226c8.284,0,15-6.716,15-15V286c0-8.284-6.716-15-15-15H105  c-8.284,0-15,6.716-15,15v23.787L36.213,256L90,202.214V226c0,8.284,6.716,15,15,15h121c8.284,0,15-6.716,15-15V105  c0-8.284-6.716-15-15-15h-23.787L256,36.214L309.787,90H286c-8.284,0-15,6.716-15,15v121c0,8.284,6.716,15,15,15h121  c8.284,0,15-6.716,15-15v-23.787L475.787,256L422,309.787z"/>















</svg>
