<?xml version="1.0" encoding="iso-8859-1"?>
<!-- Generator: Adobe Illustrator 21.0.0, SVG Export Plug-In . SVG Version: 6.00 Build 0)  -->
<svg xmlns="http://www.w3.org/2000/svg" xmlns:xlink="http://www.w3.org/1999/xlink" version="1.1" id="Capa_1" x="0px" y="0px" viewBox="0 0 512 512" style="enable-background:new 0 0 512 512;" xml:space="preserve" width="512" height="512">
<g>
	<path d="M497,240h-15v-7.918c0-22.959-6.38-45.419-18.45-64.949c-7.649-12.375-17.376-23.226-28.697-32.133   C464.268,111.858,482,76.264,482,37.918V30h15c8.284,0,15-6.716,15-15s-6.716-15-15-15H317c-8.284,0-15,6.716-15,15s6.716,15,15,15   h15v7.918c0,37.575,17.126,73.463,47.147,97.082C349.733,158.142,332,193.737,332,232.082V240h-15c-8.284,0-15,6.716-15,15   s6.716,15,15,15h180c8.284,0,15-6.716,15-15S505.285,240,497,240z M362,37.918V30h90v7.918c0,33.089-17.058,63.076-45,79.969   C379.058,100.994,362,71.007,362,37.918z M362,232.082c0-33.089,17.058-63.076,45-79.969c27.942,16.893,45,46.88,45,79.969V240h-90   V232.082z"/>
	<path d="M237.739,337.901l42.426-42.426c3.676-3.676,5.187-8.993,3.992-14.053s-4.924-9.14-9.855-10.784L19.744,185.785   c-5.39-1.796-11.332-0.393-15.35,3.624c-4.018,4.018-5.42,9.96-3.624,15.35l84.854,254.558c1.644,4.932,5.724,8.661,10.784,9.855   c5.062,1.196,10.378-0.316,14.053-3.992l42.426-42.426l84.853,84.853c2.813,2.813,6.628,4.394,10.606,4.394   c3.979,0,7.793-1.581,10.606-4.394l63.639-63.64c5.858-5.858,5.858-15.355,0-21.213L237.739,337.901z M248.346,475.787   l-84.853-84.853c-5.854-5.854-15.356-5.857-21.213,0l-35.871,35.871L38.718,223.733l203.073,67.691l-35.871,35.871   c-5.854,5.854-5.857,15.356,0,21.213l84.853,84.853L248.346,475.787z"/>
</g>















</svg>
