<?xml version="1.0" encoding="iso-8859-1"?>
<!-- Generator: Adobe Illustrator 21.0.0, SVG Export Plug-In . SVG Version: 6.00 Build 0)  -->
<svg xmlns="http://www.w3.org/2000/svg" xmlns:xlink="http://www.w3.org/1999/xlink" version="1.1" id="Capa_1" x="0px" y="0px" viewBox="0 0 512 512" style="enable-background:new 0 0 512 512;" xml:space="preserve" width="512" height="512">
<g>
	<path d="M512,135.008c0-74.439-60.561-135-135-135c-74.421,0-135,60.572-135,135c0,74.439,60.561,135,135,135   C451.435,270.008,512,209.421,512,135.008z M482,135.008c0,23.551-7.794,45.314-20.938,62.85L314.151,50.945   C331.686,37.802,353.45,30.008,377,30.008C434.898,30.008,482,77.111,482,135.008z M272,135.008   c0-23.551,7.794-45.314,20.938-62.85L439.85,219.07c-17.535,13.144-39.299,20.938-62.849,20.938   C319.103,240.008,272,192.905,272,135.008z"/>
	<path d="M237.739,337.894l42.426-42.426c3.676-3.676,5.187-8.993,3.992-14.053s-4.924-9.14-9.855-10.784L19.744,185.777   c-5.39-1.795-11.332-0.393-15.35,3.624c-4.018,4.017-5.42,9.96-3.624,15.35L85.623,459.31c1.644,4.932,5.724,8.661,10.784,9.855   c5.062,1.195,10.378-0.316,14.053-3.992l42.426-42.426l84.853,84.853c2.813,2.813,6.628,4.394,10.606,4.394   c3.979,0,7.793-1.581,10.606-4.394l63.639-63.64c5.858-5.858,5.858-15.355,0-21.213L237.739,337.894z M248.346,475.779   l-84.853-84.853c-5.854-5.854-15.356-5.857-21.213,0l-35.871,35.871L38.718,223.725l203.073,67.691l-35.871,35.871   c-5.854,5.854-5.857,15.356,0,21.213l84.853,84.853L248.346,475.779z"/>
</g>















</svg>
