<?xml version="1.0" encoding="iso-8859-1"?>
<!-- Generator: Adobe Illustrator 21.0.0, SVG Export Plug-In . SVG Version: 6.00 Build 0)  -->
<svg xmlns="http://www.w3.org/2000/svg" xmlns:xlink="http://www.w3.org/1999/xlink" version="1.1" id="Capa_1" x="0px" y="0px" viewBox="0 0 512 512" style="enable-background:new 0 0 512 512;" xml:space="preserve" width="512" height="512">
<g>
	<path d="M512,135C512,60.561,451.44,0,377,0c-74.421,0-135,60.572-135,135c0,74.439,60.561,135,135,135   C451.611,270,512,209.277,512,135z M482,135c0,23.551-7.794,45.314-20.938,62.85L314.151,50.938C331.686,37.794,353.45,30,377,30   C434.898,30,482,77.103,482,135z M272,135c0-23.551,7.794-45.314,20.938-62.85L439.85,219.063C422.315,232.206,400.551,240,377,240   C319.103,240,272,192.897,272,135z"/>
	<path d="M339.096,301.076L20.898,165.01c-5.636-2.411-12.17-1.148-16.504,3.186c-4.334,4.334-5.595,10.869-3.186,16.504   l136.066,318.198c2.376,5.558,7.829,9.103,13.786,9.103c0.452,0,0.908-0.021,1.364-0.062c6.476-0.589,11.835-5.283,13.271-11.625   l31.55-139.267l139.268-31.55c6.342-1.437,11.035-6.796,11.624-13.271S345.075,303.633,339.096,301.076z M181.392,333.878   c-5.637,1.277-10.039,5.679-11.315,11.315L146.662,448.55L43.502,207.303l241.247,103.161L181.392,333.878z"/>
</g>















</svg>
