<?xml version="1.0" encoding="iso-8859-1"?>
<!-- Generator: Adobe Illustrator 21.0.0, SVG Export Plug-In . SVG Version: 6.00 Build 0)  -->
<svg xmlns="http://www.w3.org/2000/svg" xmlns:xlink="http://www.w3.org/1999/xlink" version="1.1" id="Capa_1" x="0px" y="0px" viewBox="0 0 512 512" style="enable-background:new 0 0 512 512;" xml:space="preserve" width="512" height="512">
<g>
	<path d="M256,302c-57.897,0-105,47.103-105,105s47.103,105,105,105s105-47.103,105-105S313.898,302,256,302z M256,482   c-41.355,0-75-33.645-75-75s33.645-75,75-75s75,33.645,75,75S297.356,482,256,482z"/>
	<path d="M389.416,249.292c0,0-119.656-240.302-119.956-240.911c-2.517-5.118-7.719-8.366-13.423-8.38c-0.013,0-0.025,0-0.037,0   c-5.689,0-10.891,3.219-13.428,8.314l-120,241c-2.876,5.776-1.736,12.743,2.83,17.302c4.57,4.562,11.539,5.684,17.306,2.801   L256,212.771l113.292,56.646c5.774,2.887,12.749,1.756,17.314-2.81S392.304,255.067,389.416,249.292z M262.708,182.584   c-4.223-2.112-9.193-2.112-13.416,0l-79.862,39.931l86.505-173.731c11.589,23.461,86.524,173.676,86.524,173.676L262.708,182.584z"/>
</g>















</svg>
