<?xml version="1.0" encoding="iso-8859-1"?>
<!-- Generator: Adobe Illustrator 21.0.0, SVG Export Plug-In . SVG Version: 6.00 Build 0)  -->
<svg xmlns="http://www.w3.org/2000/svg" xmlns:xlink="http://www.w3.org/1999/xlink" version="1.1" id="Capa_1" x="0px" y="0px" viewBox="0 0 512 512" style="enable-background:new 0 0 512 512;" xml:space="preserve" width="512" height="512">
<g>
	<path d="M196,0h-60c-8.284,0-15,6.716-15,15v106H15c-8.284,0-15,6.716-15,15v60c0,8.284,6.716,15,15,15h181c8.284,0,15-6.716,15-15   V15C211,6.716,204.284,0,196,0z M181,181H30v-30h106c8.284,0,15-6.716,15-15V30h30V181z"/>
	<path d="M196,301H15c-8.284,0-15,6.716-15,15v60c0,8.284,6.716,15,15,15h106v106c0,8.284,6.716,15,15,15h60c8.284,0,15-6.716,15-15   V316C211,307.716,204.284,301,196,301z M181,482h-30V376c0-8.284-6.716-15-15-15H30v-30h151V482z"/>
	<path d="M497,301H316c-8.284,0-15,6.716-15,15v181c0,8.284,6.716,15,15,15h60c8.284,0,15-6.716,15-15V391h106   c8.284,0,15-6.716,15-15v-60C512,307.716,505.284,301,497,301z M482,361H376c-8.284,0-15,6.716-15,15v106h-30V331h151V361z"/>
	<path d="M497,121H391V15c0-8.284-6.716-15-15-15h-60c-8.284,0-15,6.716-15,15v181c0,8.284,6.716,15,15,15h181   c8.284,0,15-6.716,15-15v-60C512,127.716,505.284,121,497,121z M482,181H331V30h30v106c0,8.284,6.716,15,15,15h106V181z"/>
</g>















</svg>
