<?xml version="1.0" encoding="iso-8859-1"?>
<!-- Generator: Adobe Illustrator 21.0.0, SVG Export Plug-In . SVG Version: 6.00 Build 0)  -->
<svg xmlns="http://www.w3.org/2000/svg" xmlns:xlink="http://www.w3.org/1999/xlink" version="1.1" id="Capa_1" x="0px" y="0px" viewBox="0 0 512 512" style="enable-background:new 0 0 512 512;" xml:space="preserve" width="512" height="512">
<g>
	<path d="M256,0C115.031,0,0,115.049,0,256c0,140.97,115.049,256,256,256c140.969,0,256-115.049,256-256C512,115.03,396.951,0,256,0   z M256,482C131.383,482,30,380.617,30,256S131.383,30,256,30s226,101.383,226,226S380.617,482,256,482z"/>
	<path d="M256,61C148.477,61,61,148.477,61,256s87.477,195,195,195s195-87.477,195-195S363.523,61,256,61z M256,421   c-90.981,0-165-74.019-165-165S165.019,91,256,91s165,74.019,165,165S346.981,421,256,421z"/>
	<path d="M376,241H271V136c0-8.284-6.716-15-15-15s-15,6.716-15,15v120c0,8.284,6.716,15,15,15h120c8.284,0,15-6.716,15-15   S384.284,241,376,241z"/>
</g>















</svg>
