<?xml version="1.0" encoding="iso-8859-1"?>
<!-- Generator: Adobe Illustrator 21.0.0, SVG Export Plug-In . SVG Version: 6.00 Build 0)  -->
<svg xmlns="http://www.w3.org/2000/svg" xmlns:xlink="http://www.w3.org/1999/xlink" version="1.1" id="Capa_1" x="0px" y="0px" viewBox="0 0 512 512" style="enable-background:new 0 0 512 512;" xml:space="preserve" width="512" height="512">
<g>
	<path d="M331,256c0-41.355-33.645-75-75-75s-75,33.645-75,75s33.645,75,75,75S331,297.355,331,256z M211,256   c0-24.813,20.187-45,45-45s45,20.187,45,45s-20.187,45-45,45S211,280.813,211,256z"/>
	<path d="M266.607,4.394c-5.857-5.858-15.355-5.858-21.213,0l-90,90c-4.29,4.29-5.573,10.742-3.252,16.347   c2.322,5.605,7.791,9.26,13.858,9.26h180c6.067,0,11.536-3.655,13.858-9.26c2.321-5.605,1.038-12.057-3.252-16.347L266.607,4.394z    M202.213,90L256,36.214L309.787,90H202.213z"/>
	<path d="M346,392H166c-6.067,0-11.536,3.655-13.858,9.26c-2.321,5.605-1.038,12.057,3.252,16.347l90,90   C248.323,510.536,252.161,512,256,512s7.678-1.464,10.606-4.394l90-90c4.29-4.29,5.573-10.742,3.252-16.347   C357.536,395.655,352.068,392,346,392z M256,475.787L202.213,422h107.574L256,475.787z"/>
	<path d="M507.607,245.394l-90-90c-4.289-4.291-10.743-5.572-16.347-3.252c-5.605,2.322-9.26,7.792-9.26,13.858v180   c0,6.067,3.654,11.537,9.26,13.858c5.605,2.322,12.057,1.038,16.347-3.252l90-90C513.465,260.749,513.465,251.252,507.607,245.394z    M422,309.787V202.214L475.787,256L422,309.787z"/>
	<path d="M110.74,152.142c-5.603-2.32-12.057-1.038-16.347,3.252l-90,90c-5.858,5.858-5.858,15.355,0,21.213l90,90   c4.294,4.296,10.749,5.57,16.347,3.252c5.605-2.322,9.26-7.792,9.26-13.858V166C120,159.933,116.346,154.464,110.74,152.142z    M90,309.787L36.213,256L90,202.214V309.787z"/>
</g>















</svg>
