<?xml version="1.0" encoding="iso-8859-1"?>
<!-- Generator: Adobe Illustrator 21.0.0, SVG Export Plug-In . SVG Version: 6.00 Build 0)  -->
<svg xmlns="http://www.w3.org/2000/svg" xmlns:xlink="http://www.w3.org/1999/xlink" version="1.1" id="Capa_1" x="0px" y="0px" viewBox="0 0 512 512" style="enable-background:new 0 0 512 512;" xml:space="preserve" width="512" height="512">
<path d="M507.606,422.754l-87.508-87.508l42.427-42.426c3.676-3.676,5.187-8.993,3.992-14.053s-4.923-9.14-9.855-10.784  l-72.828-24.276C387.925,227.86,390,211.538,390,195C390,87.477,302.523,0,195,0S0,87.477,0,195s87.477,195,195,195  c16.537,0,32.86-2.075,48.707-6.165l24.276,72.827c1.645,4.932,5.725,8.661,10.784,9.855c5.06,1.195,10.377-0.316,14.053-3.992  l42.427-42.426l87.508,87.507c2.929,2.929,6.768,4.394,10.606,4.394s7.678-1.464,10.606-4.394l63.64-63.64  C513.465,438.109,513.465,428.612,507.606,422.754z M195,360c-90.981,0-165-74.019-165-165S104.019,30,195,30s165,74.019,165,165  c0,13.298-1.585,26.425-4.708,39.193L202.104,183.13c-5.388-1.797-11.333-0.393-15.35,3.624c-4.018,4.018-5.421,9.96-3.624,15.35  l51.063,153.188C221.425,358.415,208.298,360,195,360z M433.36,475.787l-87.508-87.507c-5.857-5.858-15.356-5.858-21.213,0  l-35.871,35.871l-67.691-203.073l203.073,67.691l-35.871,35.871c-5.853,5.852-5.858,15.356,0,21.213l87.508,87.508L433.36,475.787z"/>















</svg>
