<?xml version="1.0" encoding="iso-8859-1"?>
<!-- Generator: Adobe Illustrator 21.0.0, SVG Export Plug-In . SVG Version: 6.00 Build 0)  -->
<svg xmlns="http://www.w3.org/2000/svg" xmlns:xlink="http://www.w3.org/1999/xlink" version="1.1" id="Capa_1" x="0px" y="0px" viewBox="0 0 512 512" style="enable-background:new 0 0 512 512;" xml:space="preserve" width="512" height="512">
<g>
	<path d="M256,210c57.897,0,105-47.103,105-105S313.897,0,256,0S151,47.103,151,105S198.103,210,256,210z M256,30   c41.355,0,75,33.645,75,75s-33.645,75-75,75s-75-33.645-75-75S214.645,30,256,30z"/>
	<path d="M386.598,245.385c-4.566-4.559-11.536-5.685-17.306-2.801L256,299.229l-113.292-56.646   c-5.771-2.885-12.74-1.758-17.306,2.801c-4.566,4.558-5.706,11.526-2.83,17.302l120,241C245.109,508.78,250.31,512,256,512   s10.891-3.22,13.428-8.314l120-241C392.304,256.91,391.164,249.943,386.598,245.385z M256,463.347l-86.57-173.862l79.862,39.931   c4.223,2.111,9.193,2.111,13.416,0l79.862-39.931L256,463.347z"/>
</g>















</svg>
