<?xml version="1.0" encoding="iso-8859-1"?>
<!-- Generator: Adobe Illustrator 21.0.0, SVG Export Plug-In . SVG Version: 6.00 Build 0)  -->
<svg xmlns="http://www.w3.org/2000/svg" xmlns:xlink="http://www.w3.org/1999/xlink" version="1.1" id="Capa_1" x="0px" y="0px" viewBox="0 0 512 512" style="enable-background:new 0 0 512 512;" xml:space="preserve" width="512" height="512">
<g>
	<path d="M497,301h-60c-8.284,0-15,6.716-15,15v106H316c-8.284,0-15,6.716-15,15v60c0,8.284,6.716,15,15,15h181   c8.284,0,15-6.716,15-15V316C512,307.716,505.284,301,497,301z M482,482H331v-30h106c8.284,0,15-6.716,15-15V331h30V482z"/>
	<path d="M497,0H316c-8.284,0-15,6.716-15,15v60c0,8.284,6.716,15,15,15h106v106c0,8.284,6.716,15,15,15h60c8.284,0,15-6.716,15-15   V15C512,6.716,505.284,0,497,0z M482,181h-30V75c0-8.284-6.716-15-15-15H331V30h151V181z"/>
	<path d="M196,0H15C6.716,0,0,6.716,0,15v181c0,8.284,6.716,15,15,15h60c8.284,0,15-6.716,15-15V90h106c8.284,0,15-6.716,15-15V15   C211,6.716,204.284,0,196,0z M181,60H75c-8.284,0-15,6.716-15,15v106H30V30h151V60z"/>
	<path d="M196,422H90V316c0-8.284-6.716-15-15-15H15c-8.284,0-15,6.716-15,15v181c0,8.284,6.716,15,15,15h181   c8.284,0,15-6.716,15-15v-60C211,428.716,204.284,422,196,422z M181,482H30V331h30v106c0,8.284,6.716,15,15,15h106V482z"/>
</g>















</svg>
