<?xml version="1.0" encoding="iso-8859-1"?>
<!-- Generator: Adobe Illustrator 21.0.0, SVG Export Plug-In . SVG Version: 6.00 Build 0)  -->
<svg xmlns="http://www.w3.org/2000/svg" xmlns:xlink="http://www.w3.org/1999/xlink" version="1.1" id="Capa_1" x="0px" y="0px" viewBox="0 0 512 512" style="enable-background:new 0 0 512 512;" xml:space="preserve" width="512" height="512">
<path d="M497,241h-16.504C473.153,128.709,383.449,38.857,271,31.504V15c0-8.284-6.716-15-15-15s-15,6.716-15,15v16.504  C128.709,38.847,38.857,128.551,31.504,241H15c-8.284,0-15,6.716-15,15s6.716,15,15,15h16.504  C38.847,383.291,128.551,473.143,241,480.496V497c0,8.284,6.716,15,15,15s15-6.716,15-15v-16.504  C383.291,473.153,473.143,383.449,480.496,271H497c8.284,0,15-6.716,15-15S505.284,241,497,241z M450.429,241h-90.505  c-6.597-45.916-43.008-82.327-88.924-88.924V61.571C366.591,68.877,443.123,145.409,450.429,241z M241,241h-58.491  c5.98-29.344,29.147-52.51,58.491-58.491V241z M241,271v58.491c-29.344-5.98-52.51-29.147-58.491-58.491H241z M271,271h58.491  c-5.98,29.344-29.147,52.51-58.491,58.491V271z M271,241v-58.491c29.344,5.98,52.51,29.147,58.491,58.491H271z M241,61.571v90.505  c-45.916,6.597-82.327,43.008-88.924,88.924H61.571C68.877,145.409,145.409,68.877,241,61.571z M61.571,271h90.505  c6.597,45.916,43.008,82.327,88.924,88.924v90.505C145.409,443.123,68.877,366.591,61.571,271z M271,450.429v-90.505  c45.916-6.597,82.327-43.008,88.924-88.924h90.505C443.123,366.591,366.591,443.123,271,450.429z"/>















</svg>
