<?xml version="1.0" encoding="iso-8859-1"?>
<!-- Generator: Adobe Illustrator 21.0.0, SVG Export Plug-In . SVG Version: 6.00 Build 0)  -->
<svg xmlns="http://www.w3.org/2000/svg" xmlns:xlink="http://www.w3.org/1999/xlink" version="1.1" id="Capa_1" x="0px" y="0px" viewBox="0 0 512.001 512.001" style="enable-background:new 0 0 512.001 512.001;" xml:space="preserve" width="512" height="512">
<g>
	<path d="M502.957,304.874L420,268.975V195c0-8.284-6.716-15-15-15s-15,6.716-15,15v60.992l-201.47-87.185   c-5.646-2.444-12.212-1.191-16.563,3.16c-4.351,4.351-5.604,10.917-3.16,16.564L255.991,390H195c-8.284,0-15,6.716-15,15   s6.716,15,15,15h73.974l35.899,82.957c2.391,5.525,7.826,9.043,13.761,9.043c0.448,0,0.9-0.02,1.354-0.061   c6.448-0.582,11.796-5.236,13.262-11.543l31.524-135.621l135.622-31.525c6.307-1.466,10.961-6.813,11.543-13.262   S508.899,307.445,502.957,304.874z M348.883,337.669c-5.57,1.294-9.919,5.644-11.214,11.214l-23.337,100.395L211.386,211.387   l237.893,102.946L348.883,337.669z"/>
	<path d="M135,0h-30c-8.284,0-15,6.716-15,15s6.716,15,15,15h30c8.284,0,15-6.716,15-15S143.284,0,135,0z"/>
	<path d="M195,30h30c8.284,0,15-6.716,15-15s-6.716-15-15-15h-30c-8.284,0-15,6.716-15,15S186.716,30,195,30z"/>
	<path d="M285,30h30c8.284,0,15-6.716,15-15s-6.716-15-15-15h-30c-8.284,0-15,6.716-15,15S276.716,30,285,30z"/>
	<path d="M135,390h-30c-8.284,0-15,6.716-15,15s6.716,15,15,15h30c8.284,0,15-6.716,15-15S143.284,390,135,390z"/>
	<path d="M375,30h15v15c0,8.284,6.716,15,15,15s15-6.716,15-15V15c0-8.284-6.716-15-15-15h-30c-8.284,0-15,6.716-15,15   S366.716,30,375,30z"/>
	<path d="M45,0H15C6.716,0,0,6.716,0,15v30c0,8.284,6.716,15,15,15s15-6.716,15-15V30h15c8.284,0,15-6.716,15-15S53.284,0,45,0z"/>
	<path d="M15,150c8.284,0,15-6.716,15-15v-30c0-8.284-6.716-15-15-15S0,96.716,0,105v30C0,143.284,6.716,150,15,150z"/>
	<path d="M15,240c8.284,0,15-6.716,15-15v-30c0-8.284-6.716-15-15-15s-15,6.716-15,15v30C0,233.284,6.716,240,15,240z"/>
	<path d="M15,330c8.284,0,15-6.716,15-15v-30c0-8.284-6.716-15-15-15s-15,6.716-15,15v30C0,323.284,6.716,330,15,330z"/>
	<path d="M405,90c-8.284,0-15,6.716-15,15v30c0,8.284,6.716,15,15,15s15-6.716,15-15v-30C420,96.716,413.284,90,405,90z"/>
	<path d="M45,390H30v-15c0-8.284-6.716-15-15-15s-15,6.716-15,15v30c0,8.284,6.716,15,15,15h30c8.284,0,15-6.716,15-15   S53.284,390,45,390z"/>
</g>















</svg>
